<?xml version="1.0" encoding="utf-8"?><!-- Uploaded to: SVG Repo, www.svgrepo.com, Generator: SVG Repo Mixer Tools -->
<svg version="1.1" id="Uploaded to svgrepo.com" xmlns="http://www.w3.org/2000/svg" xmlns:xlink="http://www.w3.org/1999/xlink" 
	 width="800px" height="800px" viewBox="0 0 32 32" xml:space="preserve">
<style type="text/css">
	.linesandangles_een{fill:#111918;}
</style>
<path class="linesandangles_een" d="M16,4C9.373,4,4,9.373,4,16c0,6.627,5.373,12,12,12s12-5.373,12-12C28,9.373,22.627,4,16,4z
	 M16,6c2.398,0,4.6,0.85,6.324,2.262L8.262,22.324C6.85,20.6,6,18.398,6,16C6,10.486,10.486,6,16,6z M16,26
	c-2.398,0-4.6-0.85-6.324-2.262L23.738,9.676C25.15,11.4,26,13.602,26,16C26,21.514,21.514,26,16,26z"/>
</svg>